<svg height="64" viewBox="0 0 64 64" width="64" xmlns="http://www.w3.org/2000/svg" xmlns:xlink="http://www.w3.org/1999/xlink">
    <linearGradient gradientTransform="translate(-1644 -2181)" gradientUnits="userSpaceOnUse" id="a" x1="1708.03" x2="1676.03" y1="2245" y2="2212.999">
        <stop offset=".316" stop-color="#fff" stop-opacity="0"/>
        <stop offset=".351" stop-color="#e9e9e9" stop-opacity=".05"/>
        <stop offset=".454" stop-color="#acacac" stop-opacity=".202"/>
        <stop offset=".557" stop-color="#787878" stop-opacity=".352"/>
        <stop offset=".657" stop-color="#4d4d4d" stop-opacity=".498"/>
        <stop offset=".753" stop-color="#2b2b2b" stop-opacity=".638"/>
        <stop offset=".844" stop-color="#131313" stop-opacity=".772"/>
        <stop offset=".929" stop-color="#050505" stop-opacity=".896"/>
        <stop offset="1"/>
    </linearGradient>
    <path fill="url(#a)" opacity=".2" d="M64.029 64V30.059L49 15.029 15.059 48.971 30.088 64z"/>
    <circle cx="32" cy="32" fill="#F2720C" r="24"/>
    <defs>
        <circle cx="32.029" cy="32" id="b" r="24"/>
    </defs>
    <clipPath id="c">
        <use overflow="visible" xlink:href="#b"/>
    </clipPath>
    <linearGradient gradientTransform="matrix(1 0 0 -1 -274 -299)" gradientUnits="userSpaceOnUse" id="d" x1="347.957" x2="296.079" y1="-374.899" y2="-323.022">
        <stop offset=".546" stop-opacity="0"/>
        <stop offset=".547" stop-opacity=".003"/>
        <stop offset="1"/>
    </linearGradient>
    <path clip-path="url(#c)" d="M72.385 64.538a1.499 1.499 0 0 0-.105-.106 1.783 1.783 0 0 0-.107-.106 1.473 1.473 0 0 0-.105-.104 2.137 2.137 0 0 0-.106-.107c-.034-.036-.069-.07-.104-.104-.035-.036-.069-.071-.106-.106a2.101 2.101 0 0 0-.106-.105 1.3 1.3 0 0 0-.105-.105 1.601 1.601 0 0 0-.109-.109c-.031-.034-.064-.066-.099-.1a2.06 2.06 0 0 0-.115-.114c-.032-.035-.067-.068-.103-.103-.034-.035-.068-.07-.105-.104a1.499 1.499 0 0 0-.105-.106 1.8 1.8 0 0 0-.107-.107 2.04 2.04 0 0 0-.104-.104 2.2 2.2 0 0 0-.108-.108 2.101 2.101 0 0 0-.106-.105 2.04 2.04 0 0 0-.104-.104 1.766 1.766 0 0 0-.106-.106 1.747 1.747 0 0 0-.105-.106 1.75 1.75 0 0 0-.106-.105 1.499 1.499 0 0 0-.106-.105 1.499 1.499 0 0 0-.105-.106 2.182 2.182 0 0 0-.107-.108c-.035-.035-.068-.07-.104-.104a1.766 1.766 0 0 0-.106-.106 2.093 2.093 0 0 0-.105-.106 2.08 2.08 0 0 0-.105-.105 2.093 2.093 0 0 0-.106-.105 2.141 2.141 0 0 0-.106-.107c-.035-.036-.068-.07-.105-.104a2.3 2.3 0 0 0-.098-.101 6.973 6.973 0 0 0 2.146-5.036 6.981 6.981 0 0 0-2.105-5 3.57 3.57 0 0 0-.106-.107l-.106-.105-.109-.111-.104-.102-.105-.105a10.544 10.544 0 0 0-.212-.21c-.032-.035-.066-.068-.102-.104a6.235 6.235 0 0 0-.115-.115c-.033-.035-.068-.068-.104-.104l-.105-.106a5.099 5.099 0 0 1-.104-.104l-.103-.103-.107-.106a2.75 2.75 0 0 0-.108-.108c-.036-.037-.071-.073-.108-.108a3.286 3.286 0 0 0-.102-.103l-.113-.112a2.483 2.483 0 0 0-.103-.102c-.035-.036-.069-.071-.106-.105a3.515 3.515 0 0 0-.105-.106l-.105-.106-.106-.107-.106-.104c-.035-.038-.072-.073-.109-.11-.034-.035-.068-.067-.104-.102l-.105-.105c-.035-.037-.07-.071-.106-.106-.035-.036-.069-.071-.106-.106l-.105-.105-.107-.109c-.035-.035-.07-.068-.104-.104a5.498 5.498 0 0 0-.108-.108l-.104-.104-.104-.104-.108-.109-.106-.105-.106-.107c-.035-.033-.067-.067-.104-.103l-.109-.11a10.644 10.644 0 0 0-.107-.106l-.105-.104c-.033-.033-.066-.068-.102-.102-.036-.037-.072-.074-.11-.11l-.104-.104c-.035-.037-.072-.073-.109-.109l-.102-.104a11.307 11.307 0 0 0-.111-.109l-.104-.104-.106-.105c-.035-.036-.069-.071-.106-.105a3.515 3.515 0 0 0-.105-.106 5.601 5.601 0 0 0-.109-.109 5.001 5.001 0 0 0-.103-.103l-.109-.109-.104-.104a3.493 3.493 0 0 0-.105-.106l-.105-.106-.106-.105c-.035-.036-.069-.072-.106-.107l-.109-.109-.104-.102-.105-.105-.104-.105a3.65 3.65 0 0 0-.109-.106 5.967 5.967 0 0 0-.215-.215 2.55 2.55 0 0 0-.104-.104 3.855 3.855 0 0 0-.111-.11l-.1-.101-.109-.108a2.55 2.55 0 0 0-.104-.104l-.107-.106-.105-.105a2.905 2.905 0 0 0-.111-.111l-.104-.104a4.997 4.997 0 0 0-.103-.103c-.036-.036-.073-.075-.112-.112a2.537 2.537 0 0 0-.104-.103l-.105-.106a10.544 10.544 0 0 0-.212-.21 1.937 1.937 0 0 0-.111-.111l-.098-.1-.111-.109c-.034-.036-.07-.071-.106-.107a3.2 3.2 0 0 0-.101-.1 4.174 4.174 0 0 0-.115-.116l-.102-.101-.112-.112-.097-.097c-.037-.039-.074-.074-.111-.111a4.904 4.904 0 0 0-.102-.102 2.385 2.385 0 0 0-.113-.112 2.55 2.55 0 0 0-.104-.104c-.035-.037-.072-.072-.109-.109l-.102-.102c-.036-.037-.072-.074-.111-.111l-.101-.101-.11-.11-.104-.104a3.694 3.694 0 0 0-.109-.108 2.429 2.429 0 0 0-.101-.103 3.694 3.694 0 0 0-.109-.108 2.7 2.7 0 0 0-.107-.107 5.197 5.197 0 0 0-.105-.105 2.55 2.55 0 0 0-.104-.104l-.109-.109-.104-.104c-.035-.037-.07-.071-.106-.106a5.297 5.297 0 0 0-.106-.106 2.7 2.7 0 0 0-.107-.107 3.465 3.465 0 0 0-.105-.105l-.101-.101a3.227 3.227 0 0 0-.117-.117c-.032-.032-.063-.065-.099-.098l-.11-.111-.103-.103-.112-.112-.101-.101a2.724 2.724 0 0 0-.108-.107c-.034-.036-.069-.07-.104-.105l-.111-.111-.098-.096-.115-.117a4.529 4.529 0 0 0-.098-.096l-.113-.115a10.346 10.346 0 0 0-.105-.104l-.104-.104-.106-.105-.106-.105c-.035-.037-.07-.071-.105-.106l-.105-.106-.106-.105a3.872 3.872 0 0 0-.111-.111c-.032-.033-.067-.066-.103-.101a3.493 3.493 0 0 0-.105-.106l-.105-.105a5.297 5.297 0 0 0-.106-.106c-.035-.036-.069-.071-.106-.106l-.104-.105-.108-.109c-.035-.033-.068-.067-.104-.103a5.81 5.81 0 0 0-.112-.11c-.032-.033-.063-.066-.097-.098-.038-.04-.077-.078-.116-.117-.032-.033-.065-.064-.101-.099a3.902 3.902 0 0 0-.111-.112l-.1-.1a5.914 5.914 0 0 0-.112-.112c-.034-.035-.067-.069-.104-.104l-.105-.104-.105-.106-.111-.11-.098-.099-.115-.115-.099-.098-.112-.113-.104-.103-.106-.108-.104-.104-.108-.107-.104-.105-.111-.111-.103-.101a2.649 2.649 0 0 0-.106-.106c-.034-.037-.071-.072-.106-.107l-.101-.1a3.31 3.31 0 0 0-.118-.119c-.031-.033-.064-.064-.099-.099l-.11-.11-.101-.1-.114-.115-.097-.096c-.038-.039-.075-.077-.114-.114-.033-.034-.066-.068-.102-.102-.037-.038-.074-.076-.113-.113a3.254 3.254 0 0 0-.102-.101 3.694 3.694 0 0 0-.108-.109 5.099 5.099 0 0 0-.104-.104 2.724 2.724 0 0 0-.107-.108 5.297 5.297 0 0 0-.106-.106c-.032-.034-.067-.068-.102-.102-.037-.039-.075-.076-.113-.114a4.62 4.62 0 0 0-.099-.099l-.11-.111a5.499 5.499 0 0 0-.108-.108L49 31.083l-.104-.105a5.297 5.297 0 0 0-.106-.106 5.297 5.297 0 0 0-.106-.106 3.763 3.763 0 0 0-.109-.11c-.033-.033-.065-.066-.1-.099l-.109-.11a5.704 5.704 0 0 0-.11-.11 1.91 1.91 0 0 0-.101-.1 3.493 3.493 0 0 0-.105-.106c-.037-.038-.074-.076-.113-.113-.033-.035-.067-.068-.103-.103l-.108-.108a3.334 3.334 0 0 0-.103-.103l-.106-.107-.105-.106-.107-.107-.105-.106a5.808 5.808 0 0 0-.111-.111l-.098-.098-.114-.114-.101-.101a3.902 3.902 0 0 0-.112-.111 3.18 3.18 0 0 0-.101-.1l-.109-.11c-.034-.036-.069-.07-.104-.104-.035-.036-.07-.072-.107-.107l-.107-.108-.105-.106-.105-.105c-.037-.037-.072-.073-.111-.11a2.31 2.31 0 0 0-.099-.099c-.036-.037-.071-.073-.108-.108l-.107-.109-.104-.104-.113-.112a4.344 4.344 0 0 0-.096-.096l-.117-.116a2.34 2.34 0 0 0-.1-.099 5.808 5.808 0 0 0-.111-.111 2.55 2.55 0 0 0-.104-.104 2.08 2.08 0 0 0-.105-.105 3.723 3.723 0 0 0-.108-.11l-.104-.104a3.334 3.334 0 0 0-.103-.103l-.108-.109a3.57 3.57 0 0 0-.107-.106 5.55 5.55 0 0 0-.209-.21 5.914 5.914 0 0 0-.112-.112 3.438 3.438 0 0 0-.104-.105l-.104-.104c-.035-.036-.069-.071-.106-.105-.035-.036-.069-.072-.105-.107l-.105-.106-.106-.107-.104-.105-.111-.11a3.372 3.372 0 0 0-.104-.103c-.034-.036-.069-.07-.104-.104-.034-.037-.071-.073-.107-.109l-.105-.106-.104-.104c-.036-.037-.071-.073-.108-.108a2.058 2.058 0 0 0-.104-.105l-.107-.108c-.035-.035-.068-.069-.104-.103-.036-.038-.073-.074-.111-.111a2.453 2.453 0 0 0-.102-.102 5.808 5.808 0 0 0-.111-.111l-.105-.105c-.035-.035-.068-.07-.104-.104a5.601 5.601 0 0 0-.109-.109c-.033-.034-.065-.067-.101-.101l-.112-.114-.101-.099-.111-.112-.104-.104-.105-.106-.106-.107a5.397 5.397 0 0 0-.107-.107c-.035-.036-.07-.072-.107-.107a2.55 2.55 0 0 0-.104-.104l-.105-.106-.108-.109-.104-.105c-.035-.035-.068-.069-.104-.103a5.601 5.601 0 0 0-.109-.109 5.099 5.099 0 0 0-.104-.104l-.109-.11-.104-.104-.105-.107-.105-.105c-.034-.036-.07-.071-.106-.106l-.108-.109a2.537 2.537 0 0 0-.104-.103 5.397 5.397 0 0 0-.107-.107 2.55 2.55 0 0 0-.104-.104 5.808 5.808 0 0 0-.111-.111l-.105-.105a2.55 2.55 0 0 0-.104-.104c-.035-.036-.068-.071-.105-.105l-.106-.108c-.034-.036-.069-.07-.104-.105a5.914 5.914 0 0 0-.112-.112 1.91 1.91 0 0 0-.101-.1 3.763 3.763 0 0 0-.109-.11 5.099 5.099 0 0 0-.104-.104l-.111-.111c-.033-.034-.066-.068-.102-.101-.035-.037-.072-.073-.109-.109a3.438 3.438 0 0 0-.104-.105c-.034-.036-.071-.071-.106-.106C35.729 17.808 33.959 17 32 17a7 7 0 0 0-7 7c0 1.96.808 3.73 2.107 5.001l.105.105.105.105.109.109c.035.036.07.071.106.105l.105.105.107.107.105.105.106.106.109.109.104.104.107.107.104.104.111.111c.034.036.069.07.104.104l.105.105c.035.036.07.071.106.105l.106.106.108.108.107.107.106.106.106.106.104.104.107.107c.036.037.072.073.109.108l.104.104.104.104.112.112.105.105.104.104.106.106.106.106c.036.037.072.073.109.108l.105.105.104.104c.035.035.071.072.107.106a10.247 10.247 0 0 0 .213.211l.107.106.106.106.105.104c.037.036.073.073.111.108a9.476 9.476 0 0 0 .212.213l.1.101.112.112.103.103.104.104A.237.237 0 0 1 32 34c-4 0-6-2-7-2a2 2 0 0 0-2 2c0 .768.334 1.225.685 1.514.036.034.069.075.106.105.037.035.069.076.107.107.036.033.069.074.106.104.037.035.07.077.108.106.036.035.069.076.105.105.036.034.068.075.105.105.037.033.069.074.106.105.037.035.07.077.108.107.036.033.068.074.104.104.037.035.07.077.108.107.037.035.069.076.106.105.037.035.07.077.108.108.036.032.068.073.104.104.037.034.07.076.108.106.035.032.067.073.103.104.038.035.071.078.11.108.036.034.068.075.105.104.037.035.069.076.106.106.037.035.07.076.107.106.037.035.069.076.106.105.036.034.068.075.105.105.037.035.07.076.108.106.036.034.069.075.106.106.036.033.068.074.104.104.037.035.07.077.108.107.037.035.07.076.107.107.036.033.069.074.105.104.037.035.069.076.106.106.037.033.069.074.106.105.036.034.069.075.106.105.037.035.07.076.107.106.036.034.068.075.105.104.036.035.068.076.105.105.038.036.072.078.11.109.035.033.067.072.103.104.037.035.07.077.108.108.036.032.068.073.105.104.037.034.07.075.107.106l.031.032-3.01 3.852s-.75.936-.75 1.563c0 .58.25 1.098.645 1.463.034.037.069.072.106.105.035.037.071.073.108.107.034.037.068.07.104.104.035.039.071.074.108.108.034.037.068.071.105.104.034.037.07.072.107.106.034.036.069.071.105.104.034.037.07.072.107.106.035.037.07.073.107.106.033.037.067.07.103.104.035.039.072.075.11.11.034.036.069.071.106.104.034.037.069.071.105.105a2.7 2.7 0 0 0 .107.107c.034.035.069.07.105.104.034.036.069.071.106.104.034.037.069.072.106.107.035.037.071.072.109.107.033.035.067.069.103.103.035.039.072.075.11.11a3.4 3.4 0 0 0 .104.104 1.8 1.8 0 0 0 .107.107c.034.037.069.072.106.105.034.037.068.071.105.105.035.037.071.072.108.107.034.037.069.072.106.106.034.036.069.069.105.104.035.037.07.072.107.106.034.037.069.071.106.106.034.035.069.07.106.104.035.037.07.073.107.106.034.037.069.072.105.104.034.037.069.072.106.106.035.037.071.072.109.107.034.036.068.071.104.104.034.036.068.071.105.104.035.038.071.073.109.108.034.037.069.071.105.104.034.037.069.072.106.106.034.036.069.071.106.106.035.037.07.071.107.105.034.036.068.07.105.104.035.039.071.074.109.109.033.036.067.07.103.104a2.7 2.7 0 0 0 .107.107 2.7 2.7 0 0 0 .107.107c.034.037.07.072.106.105.034.036.069.071.105.104.035.038.07.073.108.106.034.037.068.071.105.105.034.035.069.07.106.105.034.037.07.072.107.106.035.037.07.073.108.106.033.037.067.07.104.104.035.038.072.074.11.11.034.035.068.07.105.104.034.036.069.071.106.105.034.037.069.072.106.105.034.037.069.072.106.106.034.036.069.071.106.106.035.036.07.071.107.106.034.036.068.069.104.104.035.036.07.072.107.106.034.037.07.071.107.106.034.035.069.07.105.104.035.037.07.071.107.106.034.037.069.071.106.106.034.036.069.071.105.104.035.037.07.072.107.106.034.037.069.072.106.106a3.4 3.4 0 0 0 .104.104c.035.037.07.073.107.107a2.7 2.7 0 0 0 .107.107c.034.035.069.07.105.104.034.037.069.071.106.106.035.037.069.072.106.106.034.036.069.069.104.104.035.037.069.071.106.105.035.038.071.073.108.107.033.037.066.069.103.104.035.038.071.074.108.107.033.037.068.072.105.104.034.038.069.074.107.109.033.036.068.069.104.104.035.037.071.072.108.107.034.037.069.07.106.105.033.037.068.071.104.104.034.037.069.071.106.106.033.035.066.069.104.104.037.039.074.076.113.111.031.035.064.067.1.101.036.039.073.075.112.11.032.035.065.068.101.102.036.039.072.076.111.111.033.037.068.07.104.104.035.037.069.072.106.106l.104.106c.035.035.069.07.106.104.035.037.07.073.106.106.033.037.067.07.104.104.035.038.072.073.11.108a1.3 1.3 0 0 0 .105.105 1.3 1.3 0 0 0 .105.105c.033.037.068.072.105.106.034.036.068.07.104.104.034.037.069.072.106.105.035.037.068.072.105.106.035.038.072.073.109.108a1.7 1.7 0 0 0 .104.104c.034.037.069.071.106.106.033.037.068.071.105.105.034.037.069.072.105.105.035.039.072.073.109.108.032.035.066.069.103.103.034.037.071.074.108.108.034.037.069.072.106.106.033.035.067.07.104.104.033.037.067.072.104.106.035.038.071.073.11.108.033.037.068.072.105.106.034.036.068.069.104.104.035.037.07.07.105.104.034.037.069.073.105.106.035.037.07.071.105.105.035.038.071.074.109.109.033.035.066.068.104.102.035.039.071.076.11.112.033.034.065.067.103.101.035.039.071.076.11.111.033.035.067.07.104.104.035.038.07.074.108.109.033.035.066.068.103.102.035.037.07.073.107.108.035.037.07.073.108.106.032.037.067.072.104.104.033.038.069.073.106.108.034.035.067.07.104.104.034.038.069.073.107.108.034.036.068.071.105.104.033.037.068.072.105.106a1.7 1.7 0 0 0 .104.104c.037.037.072.074.111.109.034.037.069.07.105.105.033.035.068.07.105.104.032.037.067.072.104.105.035.039.072.074.109.109.034.036.068.07.104.104.034.037.069.072.106.106.032.036.066.07.104.104.036.039.074.076.113.111.031.034.063.066.098.098.037.041.074.078.113.113.033.037.066.069.103.104.035.038.072.074.11.109.033.035.066.068.102.103.035.038.071.074.109.108.033.037.07.072.107.106.032.036.067.07.104.104.034.037.068.072.105.105.035.037.069.072.106.105.034.037.069.072.106.106.033.037.068.072.105.106.034.037.069.072.105.105.035.037.07.073.107.107.034.037.069.07.105.105.035.037.07.071.107.105.033.037.068.07.104.105.034.037.069.071.106.105a1.3 1.3 0 0 0 .105.105c.034.037.068.072.105.106a2.2 2.2 0 0 0 .108.108c.032.035.065.068.101.101.037.04.074.077.114.114a3.2 3.2 0 0 0 .101.1c.035.038.072.075.111.111.032.035.066.068.103.104a1.8 1.8 0 0 0 .108.106c.034.038.07.074.108.108.032.035.065.068.101.102.035.038.071.074.109.109.034.037.07.072.107.105.033.036.066.07.104.104.035.037.07.074.107.109l.104.104c.035.037.07.072.108.107.033.036.068.07.104.104.035.038.072.073.11.11.032.035.067.068.104.104.033.036.068.07.105.105.034.037.068.071.105.105.035.037.069.072.106.105.034.037.069.072.106.107.035.036.068.07.104.104.035.039.071.074.11.109.031.035.066.069.102.104.036.037.072.074.11.109.032.035.067.069.103.104.035.037.071.072.109.107.033.037.068.071.105.105a1.3 1.3 0 0 0 .105.105c.035.039.07.074.109.108.033.036.066.07.104.104.033.035.066.07.104.104a5.808 5.808 0 0 0 .215.213c.035.038.07.074.107.108a1.7 1.7 0 0 0 .104.104c.034.038.071.074.108.109a1.7 1.7 0 0 0 .104.104c.036.039.073.075.112.111.031.034.064.066.1.1.035.037.07.073.107.108.035.037.069.072.106.106.034.037.069.072.106.105.035.037.07.073.107.107.033.035.067.07.104.104.035.038.072.075.111.11.032.036.065.069.103.103.034.039.071.074.108.109.033.036.068.07.104.104.034.037.069.072.106.106.033.037.068.072.105.106.035.037.07.072.107.106a1.7 1.7 0 0 0 .104.104c.034.037.07.072.106.106.035.037.068.071.105.104.034.037.069.072.106.107.034.035.067.07.104.104.034.036.069.071.106.106.034.037.069.073.108.107a1.3 1.3 0 0 0 .105.105c.034.037.068.07.104.104a2.2 2.2 0 0 0 .108.108c.033.035.067.068.104.103.035.038.07.074.107.108.034.037.069.072.105.105a1.7 1.7 0 0 0 .104.104c.035.039.071.076.11.111.031.034.064.067.102.102.035.039.072.074.111.111.033.035.066.069.104.104.035.037.069.072.106.105.034.037.069.072.106.106.033.037.068.072.105.106.035.037.07.072.107.106.033.037.068.071.104.104.035.037.07.072.107.106.034.037.069.071.104.104.034.037.069.072.106.106.034.037.069.072.106.106a1.3 1.3 0 0 0 .105.105c.033.037.07.072.107.107a1.7 1.7 0 0 0 .104.104c.035.039.07.074.109.109.033.036.066.068.103.104.035.037.071.074.108.107.035.037.07.071.105.105.034.037.069.072.105.105.035.037.07.072.105.105.034.037.068.07.104.104.036.039.073.076.112.112.031.035.065.068.103.102a1.8 1.8 0 0 0 .106.108c.035.036.069.071.106.104.033.037.067.071.104.105.035.037.069.073.107.107.034.037.069.072.105.105.035.037.07.072.106.105.034.037.069.072.104.105.035.037.07.072.106.105.034.037.069.072.106.106.033.037.068.072.105.106.034.037.07.072.107.107.033.035.068.069.104.104.035.038.071.074.109.109l.104.104c.035.037.069.072.106.105.034.037.069.072.106.106.033.037.068.072.105.106.034.037.069.072.105.105.035.037.07.072.106.105.034.037.069.072.106.106.033.037.068.072.107.106a1.3 1.3 0 0 0 .105.105c.033.037.068.071.105.105.033.036.067.07.104.105.035.037.069.073.108.107.033.037.067.07.104.105.033.035.067.069.104.104.035.039.071.075.109.111a3.4 3.4 0 0 0 .104.104c.035.037.07.072.106.105.034.037.069.072.106.106.033.037.068.072.105.106.034.037.069.072.106.105.034.037.069.073.106.107.034.037.069.07.106.105.034.037.069.071.104.104.035.037.069.071.106.106.034.037.069.071.106.105.451.5.968.75 1.547.75 1.021 0 1.484-.656 1.484-.656s3.031-3.599 4.125-4.888c.02.021.045.043.068.065.023.026.059.061.102.1.024.029.061.064.106.107.022.026.058.061.101.101.025.03.063.067.114.114.026.031.063.066.11.109.023.027.058.061.099.098.024.029.06.063.104.105.025.03.063.068.115.114.022.026.055.06.094.096.025.029.063.066.113.112.023.027.06.063.104.104.025.03.063.067.113.113.022.025.057.059.098.098.025.028.063.065.109.109.023.027.06.063.105.105.025.029.063.066.109.11.025.028.061.062.104.103.025.029.061.063.105.106.025.028.062.063.107.105.024.028.061.063.105.106.025.029.063.066.111.111.024.027.059.061.102.1.025.029.061.064.105.107.025.027.062.063.106.105.024.028.062.063.106.106.024.028.061.063.105.104.025.029.061.064.105.107.027.029.063.066.113.111.023.027.059.061.101.1.024.029.061.064.106.106.023.026.057.062.102.102.025.03.064.069.115.115.023.028.06.063.104.104.023.026.057.061.1.101.025.028.063.065.109.108.027.03.064.069.117.117.023.025.055.057.093.092.024.029.063.066.11.11.025.029.061.063.105.107.025.028.061.063.106.104.026.03.063.067.11.111.025.027.061.063.104.104.024.027.06.063.104.104.024.029.061.064.105.107.025.027.061.063.105.104.025.028.062.063.106.106.219.272.676.708 1.512.708a2 2 0 0 0 2-2c0-.627-.75-1.563-.75-1.563L67.029 70s3.813-1.573 5-2.266c.432-.254 1-.734 1-1.734 0-.579-.252-1.098-.644-1.462z" fill="url(#d)" opacity=".3"/>
    <g fill="#FFF">
        <path d="M39 32c-1 0-3 2-7 2s-6-2-7-2a2 2 0 0 0-2 2c0 1 .568 1.48 1 1.734 1.186.693 5 2.266 5 2.266l-4.25 5.438s-.75.937-.75 1.563a2 2 0 0 0 2 2c1.021 0 1.484-.655 1.484-.655S31.993 40.993 32 41c.007-.007 4.516 5.344 4.516 5.344S36.979 47 38 47a2 2 0 0 0 2-2c0-.627-.75-1.563-.75-1.563L35 38s3.814-1.573 5-2.266c.432-.254 1-.734 1-1.734a2 2 0 0 0-2-2z"/>
        <path d="M32 17a7 7 0 1 0 0 14 7 7 0 0 0 0-14zm0 10.5a3.5 3.5 0 1 1-.001-7.001A3.5 3.5 0 0 1 32 27.5z"/>
    </g>
</svg>
